<?xml version="1.0" encoding="UTF-8"?>
<svg width="30px" height="30px" viewBox="0 0 30 30" version="1.1" xmlns="http://www.w3.org/2000/svg" xmlns:xlink="http://www.w3.org/1999/xlink">
    <!-- Generator: Sketch 52.6 (67491) - http://www.bohemiancoding.com/sketch -->
    <title>Artboard</title>
    <desc>Created with Sketch.</desc>
    <defs>
        <radialGradient cx="22.5642289%" cy="-7.22609423%" fx="22.5642289%" fy="-7.22609423%" r="123.689308%" gradientTransform="translate(0.225642,-0.072261),scale(0.777778,1.000000),translate(-0.225642,0.072261)" id="radialGradient-1">
            <stop stop-color="#67EEE5" offset="0%"></stop>
            <stop stop-color="#66EAE6" offset="16%"></stop>
            <stop stop-color="#63DEEA" offset="32%"></stop>
            <stop stop-color="#5EC9F0" offset="48%"></stop>
            <stop stop-color="#56ADF9" offset="64%"></stop>
            <stop stop-color="#53A0FD" offset="71%"></stop>
            <stop stop-color="#4B92E7" offset="87%"></stop>
            <stop stop-color="#4484D2" offset="100%"></stop>
        </radialGradient>
    </defs>
    <g id="Artboard" stroke="none" stroke-width="1" fill="none" fill-rule="evenodd">
        <path d="M29.9784509,14.558658 C30.0154716,14.9075429 30.0047532,15.2598896 29.9465957,15.6058424 C29.8688009,15.947697 29.7613189,16.2820148 29.6253889,16.6049419 C27.1274097,22.3552829 21.5586817,26.1408327 15.3250534,26.3261264 C8.80004423,26.5264806 3.37934902,22.5274113 0.549544361,17.0751063 C0.355534769,16.6895496 0.193925154,16.2883319 0.0664069798,15.8756527 C0.0211397379,15.6541802 -0.00110172446,15.4285686 4.19550607e-05,15.2024627 C-0.00138447857,14.4522891 0.247248068,13.7233086 0.706165818,13.1321362 C3.5837533,9.19985167 6.71087326,4.97905704 7.29754008,4.40470841 C8.43370929,3.29341059 10.1353085,1.89627414 12.4049923,4.40470841 C14.6746762,6.91314267 16.3789301,9.19718022 17.6796846,10.6130164 C18.6194133,11.6361584 19.5989611,12.9264392 21.016518,12.3013342 C21.6181006,11.9943433 22.1426999,11.554108 22.5508773,11.0137248 C22.653522,10.8908409 22.7579362,10.7581619 22.8641203,10.6156878 C23.8914509,9.24526522 24.5179367,8.62817444 25.4629748,8.62817444 C26.4080127,8.62817444 27.2866857,9.50973278 28.1520854,10.6156878 C29.15287,11.8926118 29.890849,13.5488729 29.9784509,14.558658 Z" id="Shape-Copy" fill="url(#radialGradient-1)"></path>
    </g>
</svg>